# xmcd CD database file
#
# Track frame offsets:
#	150
#	10954
#	23123
#	33634
#	43741
#	53932
#	64882
#	74522
#	87618
#
# Disc length: 1322 seconds
#
# Revision: 0
# Processed by: cddbd v1.5.2PL0 Copyright (c) Steve Scherf et al.
# Submitted via: CDex 1.51
#
DISCID=81052809
DTITLE=LP Mother Maybelle Carter - Bonaparte's Retreat
DYEAR=1976
DGENRE=Country
TTITLE0=Bonaparte's Retreat
TTITLE1=Faded Coat of Blue
TTITLE2=Foggy Mountain Top
TTITLE3=The Dying Soldier
TTITLE4=Barbara Allen
TTITLE5=Mockin' Bird Hill
TTITLE6=Bully of the Town
TTITLE7=Lover's Farewell
TTITLE8=Workin' on the Railroad
EXTD=YEAR: 1976
EXTT0=
EXTT1=
EXTT2=
EXTT3=
EXTT4=
EXTT5=
EXTT6=
EXTT7=
EXTT8=
PLAYORDER=
